<svg xmlns="http://www.w3.org/2000/svg" xmlns:xlink="http://www.w3.org/1999/xlink" version="1.1" x="0px" y="0px" viewBox="0 0 100 100" enable-background="new 0 0 100 100" xml:space="preserve" style="max-width:100%" height="100%">
    <path d="M50,5C25.147,5,5,25.147,5,50c0,24.853,20.147,45,45,45c24.853,0,45-20.147,45-45C95,25.147,74.853,5,50,5z M89.388,43.077  c0.124,0.7,0.225,1.403,0.313,2.108C87.267,56.326,69.957,65,50,65c-1.347,0-2.68-0.042-3.998-0.119  c-0.395-1.725-1.163-3.452-2.306-5.041l36.281-36.282C84.755,28.968,88.09,35.674,89.388,43.077  C89.483,43.619,88.09,35.674,89.388,43.077z M54.814,10.3c0.198,0.024,0.396,0.049,0.593,0.076c0.477,0.066,0.966,0.141,1.478,0.229  c7.417,1.293,14.137,4.632,19.557,9.418L40.156,56.309c-1.568-1.136-3.287-1.939-5.039-2.343C35.042,52.658,35,51.336,35,50  C35,30.044,43.673,12.734,54.814,10.3z M40.304,70.303c-0.856,0.857-2.007,1.037-2.822,1.037c-2.012,0-4.262-1.049-6.018-2.805  c-2.875-2.875-3.684-6.922-1.768-8.838c0.856-0.857,2.007-1.037,2.822-1.037c2.012,0,4.262,1.049,6.018,2.805  C41.41,64.34,42.22,68.387,40.304,70.303z M21.541,21.927c6.014-6.096,13.964-10.271,22.843-11.524C35.756,18.046,30,33.009,30,50  c0,1.335,0.039,2.656,0.108,3.963c-0.358,0.092-0.71,0.195-1.048,0.326C19.254,41.064,16.104,27.736,21.541,21.927z M10.382,44.541  c0.064-0.461,0.137-0.933,0.223-1.427c0.66-3.783,1.846-7.385,3.492-10.726c0.739,7.432,4.52,16.278,11.048,25.041  c-0.432,0.653-0.775,1.357-1.012,2.107c-7.42-3.579-12.584-8.638-13.833-14.35C10.326,44.971,10.353,44.755,10.382,44.541z   M10.402,55.617c3.296,3.721,7.955,6.904,13.551,9.324c0.381,1.783,1.167,3.576,2.351,5.219l-6.281,6.281  C14.965,70.715,11.521,63.537,10.402,55.617z M23.558,79.977l6.286-6.285c1.624,1.176,3.41,1.994,5.227,2.383  c2.419,5.584,5.599,10.232,9.313,13.523C36.464,88.479,29.285,85.035,23.558,79.977z M56.885,89.395  c-0.688,0.121-1.378,0.221-2.07,0.306c-5.711-1.248-10.77-6.411-14.349-13.829c0.758-0.246,1.471-0.581,2.118-1.011  c8.764,6.526,17.606,10.302,25.036,11.038C64.276,87.547,60.671,88.734,56.885,89.395C56.373,89.484,60.671,88.734,56.885,89.395z   M78.079,78.454c-5.809,5.446-19.149,2.292-32.384-7.526c0.128-0.338,0.235-0.683,0.323-1.037C47.331,69.961,48.659,70,50,70  c16.991,0,31.954-5.756,39.598-14.383C88.345,64.493,84.172,72.441,78.079,78.454z" style="" fill="currentColor"></path>
</svg>