<svg xmlns="http://www.w3.org/2000/svg" xmlns:xlink="http://www.w3.org/1999/xlink" viewBox="0 0 50 50" version="1.1" style="max-width:100%" height="100%">
    <g id="surface1" style="" fill="currentColor">
        <path style="" d="M 7 6 C 3.144531 6 0 9.144531 0 13 L 0 36 C 0 37.644531 1.355469 39 3 39 L 7.09375 39 C 7.570313 41.835938 10.035156 44 13 44 C 15.964844 44 18.429688 41.835938 18.90625 39 L 28.15625 39 C 28.894531 39 29.554688 38.6875 30.0625 38.21875 C 30.582031 38.675781 31.246094 38.996094 32 39 L 34.09375 39 C 34.570313 41.835938 37.035156 44 40 44 C 42.964844 44 45.429688 41.835938 45.90625 39 L 47 39 C 48.660156 39 50 37.660156 50 36 L 50 27.375 C 50 25.085938 48.40625 23.0625 48.40625 23.0625 L 48.375 23.0625 L 44.25 17.5625 L 44.25 17.53125 L 44.21875 17.5 C 44.015625 17.253906 43.78125 16.972656 43.53125 16.71875 C 45.066406 15.96875 45.789063 13.90625 44.75 12.34375 L 42.625 9.125 C 41.328125 7.179688 39.121094 6 36.78125 6 Z M 7 8 L 36.78125 8 C 38.453125 8 40.007813 8.828125 40.9375 10.21875 L 43.09375 13.4375 C 43.566406 14.148438 43.105469 15 42.25 15 L 32 15 C 30.339844 15 29 16.339844 29 18 L 29 29 L 2 29 L 2 13 C 2 10.226563 4.226563 8 7 8 Z M 7 11 C 5.90625 11 5 11.90625 5 13 L 5 23 C 5 24.09375 5.90625 25 7 25 L 23 25 C 24.09375 25 25 24.09375 25 23 L 25 13 C 25 11.90625 24.09375 11 23 11 Z M 29.8125 11 C 29.261719 11.050781 28.855469 11.542969 28.90625 12.09375 C 28.957031 12.644531 29.449219 13.050781 30 13 L 38 13 C 38.359375 13.003906 38.695313 12.816406 38.878906 12.503906 C 39.058594 12.191406 39.058594 11.808594 38.878906 11.496094 C 38.695313 11.183594 38.359375 10.996094 38 11 L 30 11 C 29.96875 11 29.9375 11 29.90625 11 C 29.875 11 29.84375 11 29.8125 11 Z M 7 13 L 23 13 L 23 23 L 7 23 Z M 32 17 L 36 17 L 36 26 C 36 27.09375 36.90625 28 38 28 L 48 28 L 48 36 C 48 36.371094 47.371094 37 47 37 L 45.90625 37 C 45.429688 34.164063 42.964844 32 40 32 C 37.035156 32 34.570313 34.164063 34.09375 37 L 32 37 C 31.816406 37 31.527344 36.871094 31.3125 36.65625 C 31.097656 36.441406 31 36.179688 31 36 L 31 18 C 31 17.628906 31.628906 17 32 17 Z M 38 17 L 40 17 C 40.785156 17 41.894531 17.84375 42.65625 18.75 C 42.664063 18.761719 42.679688 18.769531 42.6875 18.78125 L 46.78125 24.25 C 46.78125 24.25 47.199219 25.078125 47.5625 26 L 38 26 Z M 2 31 L 29 31 L 29 36.15625 C 29 36.625 28.625 37 28.15625 37 L 18.90625 37 C 18.429688 34.164063 15.964844 32 13 32 C 10.035156 32 7.570313 34.164063 7.09375 37 L 3 37 C 2.449219 37 2 36.550781 2 36 Z M 13 34 C 15.222656 34 17 35.777344 17 38 C 17 40.222656 15.222656 42 13 42 C 10.777344 42 9 40.222656 9 38 C 9 35.777344 10.777344 34 13 34 Z M 40 34 C 42.222656 34 44 35.777344 44 38 C 44 40.222656 42.222656 42 40 42 C 37.777344 42 36 40.222656 36 38 C 36 35.777344 37.777344 34 40 34 Z " fill="currentColor"></path>
    </g>
</svg>