<svg xmlns="http://www.w3.org/2000/svg" xmlns:xlink="http://www.w3.org/1999/xlink" version="1.1" x="0px" y="0px" viewBox="0 0 144.083 144" enable-background="new 0 0 144.083 144" xml:space="preserve" style="max-width:100%" height="100%">
    <path d="M128.932,94.471l-9.601-35.305c0.044-0.504,0.083-1.01,0.083-1.523c0-6.91-4.021-13.066-10.189-15.887  c-1.299-8.43-8.527-14.773-17.258-14.773c-3.596,0-7.051,1.097-9.963,3.129c-2.914-2.032-6.369-3.129-9.964-3.129  c-3.596,0-7.052,1.097-9.963,3.129c-2.913-2.032-6.369-3.129-9.965-3.129c-8.729,0-15.958,6.345-17.257,14.775  c-6.168,2.822-10.188,8.977-10.188,15.885c0,0.514,0.04,1.02,0.083,1.524L15.15,94.471c-0.07,0.256-0.105,0.521-0.105,0.787  c0,14.134,29.366,21.76,56.996,21.76s56.997-7.626,56.997-21.76C129.038,94.992,129.002,94.727,128.932,94.471z M38.59,46.73  c1.192-0.389,2.017-1.479,2.067-2.731c0.248-6.177,5.28-11.016,11.455-11.016c2.944,0,5.749,1.125,7.898,3.166  c1.158,1.101,2.976,1.1,4.134,0c2.146-2.042,4.951-3.166,7.896-3.166s5.749,1.125,7.897,3.166c1.16,1.101,2.977,1.1,4.135,0  c2.146-2.042,4.951-3.166,7.895-3.166c6.176,0,11.207,4.838,11.455,11.015c0.051,1.253,0.877,2.343,2.068,2.732  c4.74,1.544,7.924,5.93,7.924,10.913c0,1.565-0.313,3.07-0.887,4.445c-3.692,4.757-18.679,10.238-40.487,10.238  c-21.811,0-36.797-5.483-40.487-10.241c-0.573-1.375-0.886-2.878-0.886-4.443C30.667,52.661,33.851,48.276,38.59,46.73z   M72.041,111.018c-31.058,0-50.332-8.869-50.979-15.421l7.595-27.928c7.846,6.967,26.022,10.657,43.384,10.657  s35.54-3.69,43.386-10.658l7.596,27.928C122.374,102.148,103.098,111.018,72.041,111.018z" style="" fill="currentColor"></path>
    <path d="M60.687,50.27h1.375c1.657,0,3-1.343,3-3s-1.343-3-3-3h-1.375c-1.656,0-3,1.343-3,3S59.031,50.27,60.687,50.27z" style="" fill="currentColor"></path>
    <path d="M82.02,50.27h1.375c1.658,0,3-1.343,3-3s-1.342-3-3-3H82.02c-1.656,0-3,1.343-3,3S80.364,50.27,82.02,50.27z" style="" fill="currentColor"></path>
    <path d="M49.686,63.187h1.375c1.657,0,3-1.343,3-3s-1.343-3-3-3h-1.375c-1.656,0-3,1.343-3,3S48.03,63.187,49.686,63.187z" style="" fill="currentColor"></path>
    <path d="M71.021,63.187h1.375c1.657,0,2.999-1.343,2.999-3s-1.342-3-2.999-3h-1.375c-1.657,0-3,1.343-3,3  S69.364,63.187,71.021,63.187z" style="" fill="currentColor"></path>
    <path d="M92.352,63.187h1.375c1.658,0,3-1.343,3-3s-1.342-3-3-3h-1.375c-1.656,0-3,1.343-3,3S90.696,63.187,92.352,63.187z" style="" fill="currentColor"></path>
</svg>