<svg xmlns="http://www.w3.org/2000/svg" xmlns:xlink="http://www.w3.org/1999/xlink" viewBox="0 0 50 50" version="1.1" style="max-width:100%" height="100%">
    <g id="surface1" style="" fill="currentColor">
        <path style="" d="M 0.8125 0 C 0.261719 0.0507813 -0.144531 0.542969 -0.09375 1.09375 C -0.0429688 1.644531 0.449219 2.050781 1 2 L 1 9.8125 C 1 17.058594 6.941406 23 14.1875 23 L 24 23 C 23.996094 23.359375 24.183594 23.695313 24.496094 23.878906 C 24.808594 24.058594 25.191406 24.058594 25.503906 23.878906 C 25.816406 23.695313 26.003906 23.359375 26 23 L 35.8125 23 C 36.457031 23 37 23.542969 37 24.1875 L 37 32 C 36.96875 32 36.9375 32 36.90625 32 C 36.355469 32.027344 35.925781 32.496094 35.953125 33.046875 C 35.980469 33.597656 36.449219 34.027344 37 34 L 49 34 C 49.359375 34.003906 49.695313 33.816406 49.878906 33.503906 C 50.058594 33.191406 50.058594 32.808594 49.878906 32.496094 C 49.695313 32.183594 49.359375 31.996094 49 32 L 49 24.1875 C 49 16.941406 43.058594 11 35.8125 11 L 26 11 C 26.007813 10.691406 25.871094 10.398438 25.632813 10.203125 C 25.398438 10.007813 25.082031 9.933594 24.78125 10 C 24.316406 10.105469 23.988281 10.523438 24 11 L 14.1875 11 C 13.542969 11 13 10.457031 13 9.8125 L 13 2 C 13.359375 2.003906 13.695313 1.816406 13.878906 1.503906 C 14.058594 1.191406 14.058594 0.808594 13.878906 0.496094 C 13.695313 0.183594 13.359375 -0.00390625 13 0 L 1 0 C 0.96875 0 0.9375 0 0.90625 0 C 0.875 0 0.84375 0 0.8125 0 Z M 3 2 L 11 2 L 11 9.8125 C 11 11.566406 12.433594 13 14.1875 13 L 24 13 L 24 21 L 14.1875 21 C 8.035156 21 3 15.964844 3 9.8125 Z M 26 13 L 35.8125 13 C 41.964844 13 47 18.035156 47 24.1875 L 47 32 L 39 32 L 39 24.1875 C 39 22.433594 37.566406 21 35.8125 21 L 26 21 Z M 43 34.03125 L 42.125 35.5 C 42.125 35.5 41.109375 37.210938 40.09375 39.21875 C 39.585938 40.222656 39.082031 41.320313 38.6875 42.3125 C 38.292969 43.304688 38 44.148438 38 45 C 38 47.746094 40.253906 50 43 50 C 45.746094 50 48 47.746094 48 45 C 48 44.148438 47.707031 43.304688 47.3125 42.3125 C 46.917969 41.320313 46.414063 40.222656 45.90625 39.21875 C 44.890625 37.210938 43.875 35.5 43.875 35.5 Z M 43 38.125 C 43.378906 38.796875 43.550781 39.050781 44.09375 40.125 C 44.585938 41.097656 45.082031 42.128906 45.4375 43.03125 C 45.792969 43.933594 46 44.753906 46 45 C 46 46.65625 44.65625 48 43 48 C 41.34375 48 40 46.65625 40 45 C 40 44.753906 40.207031 43.933594 40.5625 43.03125 C 40.917969 42.128906 41.414063 41.097656 41.90625 40.125 C 42.449219 39.050781 42.621094 38.796875 43 38.125 Z " fill="currentColor"></path>
    </g>
</svg>